<?xml version="1.0" encoding="UTF-8"?>
<svg width="553px" height="572px" viewBox="0 0 553 572" version="1.1" xmlns="http://www.w3.org/2000/svg" xmlns:xlink="http://www.w3.org/1999/xlink">
    <title>icon</title>
    <g id="icon" stroke="none" stroke-width="1" fill="none" fill-rule="evenodd">
        <g id="reachy-minimalist-flat-vector-icon-of-reachy-mini-robot-with-a-wooden-puppeteer-control-cross-floating-above-its-head,-thin-strings-connecting-the-cross-to-the-robot's-head-and-antennas,-clean-line-art-style,-monochrome,-centered-compos-(1)" transform="translate(90.000000, 0.000000)" fill-rule="nonzero">
            <path d="M255.449774,0 L261.745532,0.786070727 C282.206747,7.4676719 300.307052,8.25374263 297.552658,35.7662181 C296.372203,48.7363851 294.011294,51.0945972 282.993717,57.7761984 L281.419777,67.6020825 C290.46993,73.1045776 298.733113,72.3185069 306.996295,81.3583202 C310.144175,71.9254715 307.783265,71.5324361 308.17675,62.4926228 L311.718114,49.5224558 C313.292054,43.6269253 314.865993,35.3731827 317.226903,30.263723 C318.276196,27.6434872 319.587812,25.4162868 321.161752,23.5821218 C329.424934,14.1492731 344.37736,13.7562377 353.427513,21.2239096 C364.838575,31.0497937 361.690696,44.4129961 358.149332,56.9901277 C356.575392,64.0647642 354.476806,70.8773772 351.853573,77.4279666 C350.279634,80.9652848 345.9513,83.7165324 345.16433,87.646886 L336.901147,117.517574 L325.096601,161.93057 L314.472508,201.234106 C312.898569,206.736601 309.357205,217.348556 309.75069,222.458016 L312.898569,248.005314 L318.800842,300.672053 L321.161752,323.861139 C321.555236,325.040245 335.327208,330.935776 336.901147,332.900953 C335.720693,331.328811 343.590391,338.010412 343.590391,338.010412 C363.65812,355.303968 371.134333,382.816444 371.921303,408.756778 C372.183626,423.692122 371.790141,438.627465 370.740848,453.562809 C369.166909,479.110108 366.412514,507.015619 347.918724,526.667387 C324.309631,551.428615 286.535081,557.324145 253.875835,562.04057 C239.316893,564.005746 219.642649,567.150029 205.083708,567.543065 C168.489612,571.080383 137.797791,574.224666 100.810211,569.901277 C25.6545957,560.861463 6.76732071,508.58776 6.76732071,441.771748 L7.16080561,425.657298 C7.5542905,416.22445 8.34126029,415.045344 4.01292645,406.398566 C-3.46328655,392.249293 0.0780775041,372.597524 9.91519987,360.413428 L15.0305035,352.159686 C19.3588373,341.154695 20.9327769,328.577564 22.1132316,317.572574 C20.9327769,314.428291 16.6044431,309.711866 16.6044431,306.174548 C15.4239884,293.597416 16.997928,280.627249 16.2109582,268.050118 C15.8174733,260.582446 20.9327769,256.259057 24.474141,250.756562 L26.0480806,193.766434 L27.6220201,133.632024 L28.4089899,103.761336 C28.8024748,93.1493811 30.7698993,85.6817092 26.0480806,75.8558251 C25.2611108,74.2836837 25.2611108,66.8160118 25.2611108,64.8508349 C26.0480806,54.6319155 24.8676259,42.0547839 27.6220201,32.2288998 C30.3764144,23.9751572 41.3939915,17.6865913 50.0506591,18.4726621 C55.9529326,18.8656974 59.4942966,19.2587328 63.8226304,23.5821218 C65.39657,22.0099803 68.1509643,18.0796267 69.7249039,17.293556 C75.2336924,13.7562377 91.760058,7.07463654 97.6623314,5.50249509 C100.285564,4.71642436 103.039958,4.45440078 105.925514,4.71642436 C112.221273,5.10945972 125.206274,11.0049902 131.502032,13.3632024 L164.161279,25.1542633 C167.702643,26.3333693 178.326735,30.6567583 181.081129,31.0497937 C186.589918,30.263723 194.459615,25.5472986 199.574919,23.5821218 L239.710378,4.71642436 C245.219167,2.35821218 249.154016,0.786070727 255.449774,0 M182.261584,50.7015619 C159.964106,42.0547839 137.535467,33.6700295 114.975667,25.5472986 L104.351575,22.0099803 C98.8427861,23.9751572 84.283845,29.4776522 79.5620262,31.8358644 L79.5620262,45.1990668 L92.1535429,50.3085265 L95.301422,89.6120628 C76.4141471,98.2588408 74.8402075,93.5424165 77.2011169,115.159361 L94.1209673,123.020069 L86.2512694,173.328595 L74.8402075,248.791385 L65.39657,309.711866 C63.8226304,321.895963 60.6747513,338.403448 59.4942966,350.587544 C53.9855081,353.731827 50.8376289,356.090039 45.7223253,360.413428 L45.7223253,341.547731 L42.1809612,339.189519 C42.1809612,334.86613 42.5744461,319.53775 46.1158102,316.393467 C48.4767196,313.64222 55.1659628,310.890972 55.9529326,306.174548 C55.6906093,304.340383 54.5101546,303.4233 52.4115685,303.4233 C48.4767196,303.030265 35.8852029,299.885982 33.9177785,303.816336 C33.9177785,304.602407 34.3112633,305.257466 35.0982331,305.781513 L50.0506591,307.746689 C43.7549008,312.463114 40.2135368,312.463114 39.0330821,321.502927 C37.8526274,330.542741 37.8526274,339.189519 34.3112633,347.836297 L33.1308087,352.945756 C30.3764144,367.095029 16.997928,373.776631 17.3914129,388.711974 C17.7848978,399.716965 20.9327769,400.503035 25.6545957,408.756778 C22.5067165,486.184744 24.0806561,551.035579 120.09097,553.786827 C166.969331,553.737624 213.783513,550.322517 260.171593,543.567907 C294.798264,538.458448 339.655542,529.81167 348.312209,489.329027 C354.214483,461.030481 356.181907,427.622475 353.820998,398.930894 C351.066604,367.095029 336.114178,346.264155 305.028871,337.224342 L296.372203,258.617269 L292.043869,221.671945 L292.830839,216.16945 C296.765688,204.771424 329.031449,77.0349312 331.392359,73.8906483 C335.064885,72.842554 337.294632,70.4843418 338.081602,66.8160118 C338.868572,60.527446 346.344785,40.8756778 343.590391,36.1592534 C342.803421,34.8491355 341.754128,33.932053 340.442511,33.4080059 C337.688117,33.0149705 334.146753,34.1940766 333.359783,36.5522888 C330.474227,45.7231139 327.850995,55.1559627 325.490085,64.8508349 C324.703116,67.9951179 325.490085,69.5672593 327.064025,72.7115422 L317.226903,110.442937 L299.126597,176.865913 L290.46993,209.880884 C289.68296,198.875894 287.715536,185.119656 286.535081,174.114666 L279.845838,115.159361 L293.224324,107.69169 L292.830839,91.5772397 C282.993717,87.2538507 271.18917,83.7165324 261.352048,79.3931434 L266.467351,45.9851375 L279.845838,39.3035363 L279.845838,25.1542633 C275.124019,23.1890864 259.384623,17.293556 254.662804,17.6865913 L182.261584,50.7015619 Z M66.1835398,129.308635 L65.7900549,156.82111 L65.0030851,176.472878 L64.6096002,185.512691 L65.39657,188.656974 C66.1835398,185.905727 66.5770247,186.691798 66.9705096,183.547515 C68.1509643,169.005206 71.2988434,154.462898 73.2662679,139.920589 L74.0532377,133.238988 L66.1835398,129.308635 Z M75.6271773,63.2786935 L72.872783,61.3135167 C71.6923283,66.4229764 73.2662679,75.8558251 70.5118737,80.1792141 L70.5118737,80.9652848 L73.6597528,80.9652848 C74.9713691,80.4412377 75.8895006,79.5241552 76.4141471,78.2140373 C77.2011169,73.8906483 75.6271773,67.9951179 75.6271773,63.2786935" id="Shape" fill="#F8F7F5"></path>
            <path d="M254.990128,17.0187437 C259.70618,16.6257956 275.426355,22.5200176 280.142407,24.4847583 L280.142407,38.6308912 L266.780259,45.3110095 L261.671202,78.711601 C271.496311,83.0340304 283.286442,86.5705637 293.111552,90.8929931 L293.504556,107.003867 L280.142407,114.469881 L286.823482,173.412102 C288.002495,184.414649 289.967517,198.167834 290.753525,209.170382 L299.399621,176.162738 L317.477822,109.754504 L327.302932,72.0314827 C325.730914,68.8878976 324.944905,67.316105 325.730914,64.17252 C328.08894,54.4797993 330.708969,45.049044 333.591001,35.8802542 C334.37701,33.5225654 337.91405,32.343721 340.66508,32.7366692 C341.975095,33.2606 343.023106,34.177479 343.809115,35.4873061 C346.560146,40.2026837 339.093063,59.8500905 338.307054,66.1372606 C337.521045,69.5428111 335.29402,71.9004999 331.62598,73.2103271 C329.267953,76.3539121 297.041595,204.062056 293.111552,215.457552 L292.325543,220.958826 L296.648591,257.895951 L305.294687,336.485578 C336.342032,345.523385 351.276198,366.349636 354.027229,398.178435 C356.385255,426.863649 354.420233,460.26424 348.525167,488.556506 C339.879071,529.030164 295.076573,537.675023 260.492189,542.783348 C214.160759,549.536459 167.403746,552.950808 120.582634,553 C24.6895682,550.249363 23.1175507,485.412921 26.2615857,408.002138 C21.5455333,399.750227 18.4014983,398.964331 18.0084939,387.961783 C17.6154896,373.029754 30.9776381,366.349636 33.7286687,352.203503 L34.9076818,347.095177 C38.4447211,338.450318 38.4447211,329.805459 39.6237342,320.767652 C40.8027473,311.729845 44.3397866,311.729845 50.6278565,307.014467 L35.6936905,305.049727 C34.9076818,304.525796 34.5146774,303.870882 34.5146774,303.084986 C36.4796992,299.155505 49.055839,302.29909 52.9858827,302.692038 C55.081906,302.692038 56.2609191,303.608917 56.522922,305.442675 C55.7369133,310.158053 49.055839,312.908689 46.6978128,315.659326 C43.1607735,318.802911 42.7677691,334.127889 42.7677691,338.450318 L46.3048084,340.808007 L46.3048084,359.669518 C51.4138652,355.347088 54.5579002,352.989399 60.0599613,349.845814 C61.2389744,337.664422 64.3830094,321.1606 65.9550268,308.979208 L75.3871317,248.072247 L86.7842583,172.626205 L94.6443457,122.328844 L77.7451579,114.469881 C75.3871317,92.8577338 76.9591491,97.5731114 95.8233588,88.9282525 L92.6793239,49.633439 L80.1031841,44.5251132 L80.1031841,31.1648766 C84.8192365,28.8071878 99.3603981,23.3059139 104.862459,21.3411732 L115.473577,24.8777064 C138.005828,32.9986346 160.407077,41.3815281 182.677324,50.0263871 L254.990128,17.0187437 Z M166.957149,312.122793 L206.650591,310.551001 C208.222608,297.714695 210.056628,285.009372 212.152652,272.435032 C218.833726,223.316515 227.479822,174.197998 234.553901,125.079481 C230.230853,122.328844 187.786381,106.21797 184.249342,105.825022 L119.010617,138.439717 C119.403621,149.835213 121.761647,168.696724 122.547656,180.09222 L132.372765,288.152957 C132.765769,292.868335 133.944783,310.158053 135.123796,314.087534 C138.267831,314.480482 146.913927,313.301638 150.450966,312.908689 L166.957149,312.122793 Z M256.169141,114.469881 L240.841971,215.457552 C234.815904,253.180573 229.182841,290.772611 223.942783,328.233667 C233.767892,328.233667 245.951027,328.626615 256.169141,329.805459 L256.562145,329.412511 C258.527167,325.48303 260.885193,318.802911 262.064206,314.480482 C264.029228,308.193312 264.815237,299.548453 269.924294,294.047179 C272.28232,291.951456 275.164352,290.24868 278.57039,288.938853 C273.330332,287.367061 268.352276,285.140355 263.636224,282.258735 L264.422233,279.901046 C267.173263,279.508098 281.714425,285.009372 284.465455,286.974113 C286.823482,291.68949 276.605368,294.440127 273.854338,296.01192 C269.924294,300.334349 268.352276,308.193312 266.780259,313.301638 C265.732247,319.064877 266.256253,324.697134 268.352276,330.198407 C280.928416,331.377252 291.14653,332.556096 303.329665,336.092629 L296.648591,274.399772 C296.255586,270.863239 294.683569,254.359417 293.89756,252.394677 L291.14653,252.787625 C287.216486,251.60878 275.426355,249.251092 273.068329,246.893403 C272.675324,245.714558 272.675324,246.500455 273.461333,245.32161 C276.605368,243.35687 284.85846,246.500455 288.788504,247.679299 L282.107429,240.213284 C283.679447,234.712011 289.181508,217.422293 289.181508,213.492811 C289.574512,208.384486 286.823482,190.701819 286.430477,184.414649 L278.57039,115.255778 L270.317298,119.578207 L256.169141,114.469881 Z" id="Shape" fill="#000000"></path>
            <path d="M80.5365458,346.484023 C124.535753,331.568546 238.46227,328.428445 285.211427,335.886184 C296.996929,337.717909 308.12768,340.988847 318.603682,345.698998 C331.960584,352.764225 340.865185,363.623739 345.317486,378.277542 C347.412686,384.296068 348.853136,390.183757 349.638837,395.940608 C352.781637,421.061412 350.817387,478.368248 340.210435,499.956439 C336.281935,507.806691 329.996334,515.656942 322.139332,519.97458 C313.758531,525.469756 304.46108,529.52572 294.246978,532.14247 C270.675975,538.815184 245.533571,541.170259 220.784017,543.917847 C181.499011,548.235486 104.107549,557.655787 69.1438941,538.030159 C51.8584915,528.217344 40.0729897,512.124329 34.9659389,493.283726 C28.2874879,468.947946 28.2874879,439.509503 29.8588882,413.996186 L32.2159885,393.585532 C33.7873888,387.305331 36.1444891,381.54848 39.2872896,376.314979 C49.1085411,359.829451 62.8582932,351.586687 80.5365458,346.484023" id="Path" fill="#F8F7F5"></path>
            <path d="M322,520.903171 C313.623182,526.411416 304.33015,530.477026 294.120903,533.099999 C270.561103,539.788583 245.43065,542.14926 220.69286,544.903382 C181.426527,549.231289 104.07185,558.673995 69.1248133,539.001691 C51.8476266,529.165539 40.0677266,513.034249 34.9631033,494.148837 C28.2878266,469.755179 28.2878266,440.246723 29.8584799,414.672727 L32.2144599,394.213531 C33.7851133,387.918393 36.1410933,382.147851 39.2823999,376.901903 C49.0989833,360.377167 62.8421999,352.114799 80.5120499,347 C79.4649477,348.836082 77.8942944,350.409866 75.8000899,351.721353 C72.6587833,354.344327 70.0410277,357.491896 67.9468233,361.164059 C56.9522499,380.836364 54.9889333,406.016913 55.3815966,428.049894 C54.8580455,436.968005 55.2507088,446.017265 56.5595866,455.197674 C59.7008933,478.017547 64.8055166,500.050528 83.6533566,514.608033 C90.9830722,520.116279 98.8363388,524.313037 107.213157,527.198308 C122.134363,531.919661 140.196877,532.706553 155.510747,534.673784 C161.400697,535.460676 167.68331,534.673784 173.57326,535.460676 L192.813763,535.854122 C205.771653,535.06723 218.33688,532.313107 231.29477,531.132769 L267.81246,527.591754 L285.874973,526.01797 C293.335577,525.231078 300.010853,522.476955 307.471457,520.903171 C312.445192,520.378576 317.28804,520.378576 322,520.903171" id="Path" fill="#C7C6C6"></path>
            <path d="M144.532882,398.132409 C174.438558,396.174792 191.75237,416.142478 198.048302,443.549105 L216.149106,441.591489 L250.383235,439.24235 C251.694888,434.02204 253.793532,428.80173 256.679167,423.58142 C261.925777,414.445877 269.795692,408.312013 280.288912,405.179827 C301.144186,399.698502 319.24499,411.835722 324.360434,431.803408 C325.672087,437.023718 326.196748,442.374536 325.934417,447.855861 C325.540922,475.654012 293.667767,499.53693 266.910056,483.484477 C257.466159,475.654012 254.318193,467.823547 250.383235,456.469373 L217.329593,457.643942 C209.853174,458.035466 205.524721,457.252419 197.654806,458.035466 C195.293832,470.955733 193.326353,478.003151 185.062943,488.965802 C168.142626,510.891104 135.875975,517.546999 113.446718,499.928453 C89.8369738,481.52686 87.8694951,440.808443 106.757291,418.491618 C116.463519,406.74592 129.055382,399.959517 144.532882,398.132409" id="Path" fill="#000000"></path>
            <path d="M146.406559,402.129599 C157.067863,401.345671 168.518894,404.089418 176.811019,411.144766 C186.682598,419.376005 194.57986,435.44652 194.974723,448.381325 C195.764449,474.642898 177.995609,504.824109 149.1706,506 L136.929843,506 C94.6794888,500.904471 87.1770894,437.798303 117.186687,414.280476 C126.663402,406.833164 134.165802,403.30549 146.406559,402.129599" id="Path" fill="#393939"></path>
            <path d="M148.842278,406 C155.127306,406 161.281395,407.4415 167.304547,410.324499 C209.728484,432.340132 197.158428,501.532122 147.663835,503.890939 C139.021922,504.677212 127.63031,501.138985 121.345282,495.635077 C88.7417008,467.329263 104.45427,409.538227 148.842278,406" id="Path" fill="#000000"></path>
            <path d="M168.71065,447.973569 C165.154703,446.001947 164.364493,438.904111 160.018336,436.143841 C157.2526,433.777896 148.560286,433.777896 146.189655,432.200599 C132.360974,421.15952 156.462389,412.090062 165.154703,419.976547 C168.71065,423.131141 174.242122,429.046005 175.032332,433.383572 C177.007858,437.721138 179.378489,446.001947 177.007858,449.94519 C173.847017,455.465729 170.29107,452.705459 168.71065,447.973569" id="Path" fill="#393939"></path>
            <path d="M168.894321,448.051756 C168.507028,443.393471 165.02139,429.806807 175.09101,433.688711 C177.027475,437.958806 179.351233,446.110804 177.027475,449.992708 C173.929131,455.427374 170.443493,452.710041 168.894321,448.051756" id="Path" fill="#F8F7F5"></path>
            <path d="M120.622267,470.276763 C124.161247,470.276763 127.700227,474.987302 130.452767,477.735116 C139.103607,487.156194 151.686647,481.268021 162.303587,481.268021 C171.740867,481.268021 166.235787,488.333829 161.517147,491.474188 C148.147667,498.801693 135.433553,497.231513 123.374807,486.763649 C118.656167,482.8382 115.510407,474.987302 120.622267,470.276763 M242.127247,442.406075 L249.991647,442.406075 L249.991647,453.789877 L221.679807,454.182422 L212.242527,453.789877 C211.98038,451.172911 212.242527,448.425097 213.028967,445.546434 C214.995067,444.761344 238.195047,442.79862 242.127247,442.406075 M297.964487,438.088081 C294.425507,425.526644 284.595007,429.452093 281.842467,426.311734 C279.876367,417.675746 299.930587,414.142842 304.256007,430.237183 C314.086507,438.873171 301.896687,452.612243 297.964487,438.088081" id="Shape" fill="#393939"></path>
            <path d="M298.077756,437.737106 C297.559381,433.094843 299.632883,430.515807 304.298265,430 C314.017809,438.510817 301.965574,452.050753 298.077756,437.737106" id="Path" fill="#F8F7F5"></path>
            <path d="M270.729008,459.980756 C274.660305,461.534173 276.625954,465.029362 281.343511,466.194425 C286.061069,467.359488 299.034351,462.699236 301,467.359488 C300.475827,469.430711 299.427481,471.11358 297.854962,472.408095 C286.061069,479.786827 262.080153,470.077969 270.729008,459.980756 M199.965649,446 L208.614504,446 C209.400763,448.847932 209.531807,451.825315 209.007634,454.93215 C208.221374,456.097213 208.614504,455.708858 207.041985,455.708858 L198,456.485567 C198.39313,454.155441 198,447.941772 198.78626,446.388354 L199.965649,446 Z" id="Shape" fill="#393939"></path>
            <path d="M184.027079,87 C186.382979,87 247.636364,110.957413 254.311412,113.706625 L232.323017,257.843849 L224.862669,308.115142 L221.72147,328.14511 C203.136041,327.883281 184.419729,328.40694 165.572534,329.716088 C151.044487,330.108833 132.589942,332.4653 118.061896,334.036278 C117.669246,317.933754 114.920696,297.511041 113.742747,281.015773 L104.711799,178.902208 L100,124.70347 L103.926499,125.881703 L112.957447,121.561514 L128.663443,113.706625 L184.027079,87 Z M166.750484,312.042587 L206.408124,310.471609 C207.978723,297.641956 209.81109,284.943218 211.905222,272.375394 C218.580271,223.282334 227.218569,174.189274 234.286267,125.096215 C229.967118,122.347003 187.560928,106.244479 184.027079,105.851735 L118.847195,138.449527 C119.239845,149.839117 121.595745,168.690852 122.381044,180.080442 L132.197292,288.085174 C132.589942,292.798107 133.767892,310.078864 134.945841,314.006309 C138.087041,314.399054 146.725338,313.22082 150.259188,312.828076 L166.750484,312.042587 Z M255.882012,114.492114 L270.017408,119.597792 L278.263056,115.277603 L286.116054,184.400631 C286.508704,190.684543 289.257253,208.358044 288.864603,213.463722 C288.864603,217.391167 283.367505,234.671924 281.796905,240.170347 L288.471954,247.632492 C284.545455,246.454259 276.299807,243.312303 273.158607,245.276025 C272.373308,246.454259 272.373308,245.66877 272.765957,246.847003 C275.121857,249.20347 286.901354,251.559937 290.827853,252.73817 L293.576402,252.345426 C294.361702,254.309148 295.932302,270.804416 296.324952,274.339117 L303,336 C290.827853,332.4653 280.618956,331.287066 268.054159,330.108833 C265.960026,324.61041 265.436493,318.981073 266.483559,313.22082 C268.054159,308.115142 269.624758,300.260252 273.551257,295.940063 C276.299807,294.369085 286.508704,291.619874 284.152805,286.90694 C281.404255,284.943218 266.876209,279.444795 264.12766,279.837539 L263.34236,282.194006 C268.054159,285.335962 273.027724,287.561514 278.263056,288.870662 C275.121857,290.179811 272.242424,291.881703 269.624758,293.976341 C264.520309,299.474763 263.73501,308.115142 261.77176,314.399054 C260.59381,318.719243 258.237911,325.395899 256.274662,329.323344 L255.882012,329.716088 C245.673114,328.537855 233.500967,328.14511 223.68472,328.14511 C228.920052,290.70347 234.548034,253.130915 240.568665,215.427445 L255.882012,114.492114 Z M256.667311,239.777603 C258.237911,234.671924 263.34236,231.529968 267.268859,228.388013 C271.980658,218.176656 271.195358,206.787066 269.232108,196.182965 C268.054159,190.291798 267.661509,172.225552 265.698259,167.905363 C264.520309,172.618297 263.73501,182.436909 262.94971,187.542587 C261.77176,196.182965 253.918762,237.028391 255.096712,242.526814 L255.489362,242.526814 C256.274662,241.741325 256.667311,240.824921 256.667311,239.777603 M245.673114,310.078864 C246.458414,308.115142 250.384913,292.798107 249.599613,290.44164 L246.851064,290.048896 L243.709865,310.078864 L244.102515,310.471609 L245.673114,310.078864 Z" id="Shape" fill="#F8F7F5"></path>
            <path d="M265.523364,274.33693 C269.056075,273.944399 284.757009,277.869711 287.11215,280.617429 C287.11215,282.187553 287.11215,281.402491 286.327103,282.972615 C283.186916,283.365146 267.485981,279.439835 265.130841,277.477179 C264.869159,276.43043 265,275.38368 265.523364,274.33693 M267.878505,268.056432 C271.411215,268.056432 287.11215,272.374275 288.682243,274.729462 C288.682243,276.037899 288.28972,276.953805 287.504673,277.477179 C283.186916,277.084648 268.663551,273.944399 267.093458,270.411619 C267.093458,268.841494 267.093458,269.626557 267.878505,268.056432 M270.233645,262.168465 C274.158879,262.560996 287.897196,265.701245 289.859813,269.234026 C289.859813,270.019088 289.46729,270.934994 288.682243,271.981744 L286.327103,271.196681 C282.794393,270.411619 270.233645,267.27137 268.663551,264.916183 C269.056075,263.346059 269.056075,263.73859 270.233645,262.168465 M272.588785,250 C276.514019,250 291.037383,253.53278 293,257.06556 L292.214953,260.598341 C289.859813,259.813278 272.981308,253.925311 272.196262,253.140249 C271.934579,252.093499 272.065421,251.04675 272.588785,250 M271.411215,256.280498 C274.943925,255.887967 289.859813,260.20581 291.82243,262.168465 C291.82243,263.215215 291.429907,264.392808 290.64486,265.701245 C287.504673,265.308714 272.588785,260.990872 271.018692,259.028216 C270.626168,257.458092 271.018692,257.850623 271.411215,256.280498" id="Shape" fill="#000000"></path>
            <path d="M96.5714286,123 L98.9285714,124.569444 L100.107143,137.517361 L103.642857,181.461806 L111.892857,273.666667 C113.464286,292.892361 116.214286,315.256944 117,334.482639 C104.821429,336.444444 88.3214286,339.583333 76.5357143,343.114583 C70.6428571,345.076389 67.1071429,346.645833 62,349 L73.3928571,274.059028 L85.5714286,194.802083 L96.5714286,123 Z" id="Path" fill="#F8F7F5"></path>
            <path d="M256.005693,20 C258.755218,20 271.717268,24.6933333 275.252372,25.8666667 L230.081594,47.7688889 C224.582543,50.5066667 211.227704,56.3733333 206.514231,59.1111111 L206.514231,60.2844444 C207.29981,61.5881481 208.216319,62.3703704 209.263757,62.6311111 L289,91.9644444 L270.14611,101.742222 L184.518027,69.28 C159.641366,81.5348148 134.633776,93.5288889 109.495256,105.262222 L104.388994,108 L82,98.2222222 C105.567362,86.88 129.920304,77.1022222 153.880455,65.76 C155.844402,64.9777778 160.165085,63.4133333 160.557875,61.0666667 C158.201139,58.72 94.1764706,35.2533333 85.5351044,31.7333333 L105.174573,24.3022222 L182.946869,52.8533333 L206.514231,42.2933333 L256.005693,20 Z" id="Path" fill="#D9B08D"></path>
            <path d="M256.888143,25 L259.250559,25.3948052 C260.038031,25.6580087 260.431767,26.1844156 260.431767,26.974026 C259.906786,28.2900433 259.119314,29.0796537 258.069351,29.3428571 C256.231916,29.6060606 255.181954,28.9480519 254.919463,27.3688312 C255.181954,26.3160173 255.83818,25.5264069 256.888143,25 M100.96868,96.8545455 C102.806115,96.591342 104.118568,97.2493506 104.90604,98.8285714 C104.64355,99.6181818 103.987323,100.27619 102.93736,100.802597 C101.362416,101.329004 100.049963,100.802597 99,99.2233766 C99.787472,97.6441558 99.393736,98.038961 100.96868,96.8545455 M104.118568,29.7376623 L106.087248,30.5272727 C106.87472,31.7116883 106.87472,30.9220779 106.87472,32.5012987 L104.118568,34.4753247 C102.018643,34.2121212 101.231171,33.2909091 101.756152,31.7116883 C102.281133,30.395671 103.068606,29.7376623 104.118568,29.7376623 M269.881432,91.7220779 C271.718867,91.4588745 273.425056,91.7220779 275,92.5116883 L274.606264,94.8805195 C272.768829,95.6701299 271.06264,95.5385281 269.487696,94.4857143 L269.881432,91.7220779 Z" id="Shape" fill="#3B2418"></path>
            <path d="M186.261261,74 L269,104.968 L269,116.728 L245.36036,107.712 L185.867267,85.368 L186.261261,74 Z M182.715315,74 C183.503303,75.176 183.109309,83.016 183.109309,84.976 C177.199399,88.504 169.31952,91.64 163.015616,94.776 L105.492492,123 C104.704505,121.432 105.098498,113.592 105.098498,111.24 C110.614414,108.104 122.04024,103.008 128.344144,99.872 L182.715315,74 Z" id="Shape" fill="#D9B08D"></path>
            <polygon id="Path" fill="#F8F7F5" points="94 50 141 68.0206186 127.683333 74.2886598 97.525 88"></polygon>
            <path d="M83.3935091,33.9090909 L108.184584,43.3636364 L156.192698,61.4848485 L151.864097,63.8484848 L145.174442,67 C126.286004,58.7272727 102.675456,50.4545455 83,42.969697 L83.3935091,33.9090909 Z M277,28 L277,37.0606061 L221.908722,64.2424242 L214.825558,61.4848485 L210.103448,59.9090909 L277,28 Z" id="Shape" fill="#D9B08D"></path>
            <path d="M264.974761,47 C265.368446,48.5802469 261.037917,74.654321 260.250548,79 L236.62948,70.308642 L226,66.3580247 C237.416849,60.037037 253.164228,52.5308642 264.974761,47" id="Path" fill="#F8F7F5"></path>
            <path d="M80,101 L103,110.821429 L103,123 C96.2586207,119.464286 87.5344828,116.321429 80.3965517,112.785714 L80,101 Z" id="Path" fill="#D9B08D"></path>
            <path d="M40.1943906,363.07943 C41.2631942,362.814664 42.1983973,363.211813 43,364.270876 C33.7815691,377.376782 29.3727543,384.922607 26.5671448,401.205703 L26.5671448,401.602851 L25.7655422,402 C16.5471112,385.319756 25.3647408,371.816701 40.1943906,363.07943" id="Path" fill="#F8F7F5"></path>
            <path d="M290.612245,95 L291,105.888889 L272.77551,116 C272,114.444444 272,107.055556 272,104.722222 L290.612245,95 Z" id="Path" fill="#D9B08D"></path>
            <path d="M338.204756,37.0788177 C339.246629,36.816092 340.158269,37.2101806 340.939674,38.2610837 C341.721079,41.0197044 334.688432,65.453202 332.734919,69 L330.781405,68.6059113 L330,67.0295567 C330.390703,62.3004926 335.86054,39.8374384 338.204756,37.0788177" id="Path" fill="#393939"></path>
            <path d="M291.117647,225 C291.941176,226.964286 293.588235,243.071429 294,246.607143 L293.588235,247 L292.764706,245.428571 L287,238.75 L291.117647,225 Z" id="Path" fill="#F8F7F5"></path>
            <path d="M41.1693443,342 L42.6338689,342.782609 L43,344.73913 C42.2677377,348.26087 43.3661311,356.086957 42.6338689,358.434783 L40.437082,359.608696 L39.3386886,360 C38.2402952,357.652174 40.0709509,345.130435 41.1693443,342" id="Path" fill="#393939"></path>
            <path d="M47.4050179,35.0918931 C51.7419355,34.6992226 52.9247312,35.4845635 55.6845878,39.0185978 L55.6845878,50.0133711 C56.2102748,57.6050002 56.078853,64.9348491 55.2903226,72.0029176 C54.5017921,74.8825011 53.0561529,77.1076338 50.953405,78.6783157 L49.7706093,121.479397 L45.827957,254.202017 C48.1935484,256.950711 56.8673835,262.448097 55.2903226,266.374802 C52.1362007,268.730825 44.2508961,267.945484 39.9139785,267.552814 C37.9426523,267.945484 34.7885305,268.730825 34,266.374802 L35.1827957,264.41145 C39.5197133,262.840768 45.827957,263.626109 50.5591398,264.018779 C47.0107527,261.270086 44.2508961,259.699404 41.4910394,255.772699 C41.0967742,248.704631 41.8853047,239.280539 42.2795699,232.212471 L43.0681004,200.798833 L45.827957,117.552693 L47.0107527,77.8929747 L44.2508961,74.7516109 C41.8853047,70.8249062 42.6738351,44.123314 43.8566308,39.0185978 C44.1194743,37.4479159 45.30227,36.1390143 47.4050179,35.0918931" id="Path" fill="#000000"></path>
            <path d="M48.446224,39.043871 C49.6696265,39.043871 52.1164315,38.6490323 52.1164315,40.2283871 L52.9320332,63.1290323 C53.2039004,66.5509677 52.660166,69.8412903 51.3008298,73 L50.0774273,73 C48.9899584,73 48.3102904,72.6051613 48.0384232,71.8154839 C46.4072198,66.2877419 46.8150207,42.9922581 48.446224,39.043871" id="Path" fill="#393939"></path>
            <path d="M40.7861073,269 C45.5316369,269 59.3727648,269 56.6045392,276.562852 C56.2090784,278.155031 57.3954608,280.145255 56.2090784,281.33939 C53.045392,282.533524 38.0178817,281.33939 34.8541953,280.5433 L35.2496561,278.155031 C38.4133425,274.174583 51.068088,278.951121 53.045392,275.368717 L52.6499312,274.970672 C48.2998624,273.378493 36.4360385,275.766762 34.4587345,271.786314 C34.4587345,269 38.4133425,269.398045 40.7861073,269 M35.2496561,283.329614 L49.090784,283.329614 C51.4635488,283.329614 55.022696,282.931569 56.6045392,285.319838 C56.8681797,286.381291 56.4727189,287.310062 55.4181568,288.106152 L41.5770289,288.504196 C38.676983,289.034923 36.3042182,288.238833 34.4587345,286.115927 L35.2496561,283.329614 Z M36.4360385,296.067048 C41.1815681,296.067048 52.6499312,295.270958 56.2090784,296.863138 C57,298.057272 57,297.261183 57,298.853362 L54.6272352,300.445541 C50.6726272,300.843586 38.0178817,301.639676 34.8541953,300.047496 C33.6678129,298.455317 34.0632737,299.251407 34.0632737,297.659227 L36.4360385,296.067048 Z M36.4360385,289.698331 C41.1815681,289.698331 51.068088,289.300286 55.4181568,290.494421 C56.4727189,290.494421 56.8681797,291.025147 56.6045392,292.0866 C56.3408987,292.882689 55.8136176,293.546098 55.022696,294.076824 C51.4635488,294.474869 38.0178817,295.270958 35.2496561,293.280734 L34.4587345,291.688555 L36.4360385,289.698331 Z" id="Shape" fill="#000000"></path>
        </g>
    </g>
</svg>